<svg width="29" height="29" viewBox="0 0 28.8 28.8" fill="none" xmlns="http://www.w3.org/2000/svg">
  <path d="M20.6401 9.59985H8.16005C7.10405 9.59985 6.24005 10.4639 6.24005 11.5199V26.8799C6.24005 27.9359 7.10405 28.7999 8.16005 28.7999H15.8401V24.4799C15.8401 23.1551 16.9153 22.0799 18.2401 22.0799H22.5601V11.5199C22.5601 10.4639 21.6961 9.59985 20.6401 9.59985ZM12.0001 22.0799H9.12005C8.59205 22.0799 8.16005 21.6479 8.16005 21.1199C8.16005 20.5919 8.59205 20.1599 9.12005 20.1599H12.0001C12.5281 20.1599 12.9601 20.5919 12.9601 21.1199C12.9601 21.6479 12.5281 22.0799 12.0001 22.0799ZM19.6801 18.2399H9.12005C8.59205 18.2399 8.16005 17.8079 8.16005 17.2799C8.16005 16.7519 8.59205 16.3199 9.12005 16.3199H19.6801C20.2081 16.3199 20.6401 16.7519 20.6401 17.2799C20.6401 17.8079 20.2081 18.2399 19.6801 18.2399ZM19.6801 14.3999H9.12005C8.59205 14.3999 8.16005 13.9679 8.16005 13.4399C8.16005 12.9119 8.59205 12.4799 9.12005 12.4799H19.6801C20.2081 12.4799 20.6401 12.9119 20.6401 13.4399C20.6401 13.9679 20.2081 14.3999 19.6801 14.3999Z" fill="#139069"/>
  <path d="M17.7588 24.4804V28.234L21.9924 24.0004H18.2388C17.97 24.0004 17.7588 24.2116 17.7588 24.4804Z" fill="#139069"/>
  <path d="M26.4 9.7344C26.4 9.7344 26.4 9.6384 26.4 9.6C26.4 7.6704 24.96 6.0864 23.1072 5.8176H17.3664C16.8384 5.8176 16.4064 5.3856 16.4064 4.8576C16.4064 4.3296 16.8384 3.8976 17.3664 3.8976H21.9072C20.4096 1.5648 17.5776 0 14.4 0C10.4448 0 7.008 2.4288 6.0384 5.76C4.0128 5.8656 2.4 7.5456 2.4 9.6V9.7344C1.008 10.1472 0 11.4336 0 12.96C0 14.8128 1.5072 16.32 3.36 16.32H4.32V11.52C4.32 9.3984 6.0384 7.68 8.16 7.68H20.64C22.7616 7.68 24.48 9.3984 24.48 11.52V16.32H25.44C27.2928 16.32 28.8 14.8128 28.8 12.96C28.8 11.4432 27.7824 10.1568 26.4 9.7344ZM14.16 5.808H13.68C13.152 5.808 12.72 5.376 12.72 4.848C12.72 4.32 13.152 3.888 13.68 3.888H14.16C14.688 3.888 15.12 4.32 15.12 4.848C15.12 5.376 14.688 5.808 14.16 5.808Z" fill="#139069"/>
</svg>
