<svg preserveAspectRatio="none" width="100%" height="100%" overflow="visible" style="display: block;" viewBox="0 0 20 20" fill="none" xmlns="http://www.w3.org/2000/svg">
<g id="Group 44">
<path id="Vector" d="M14.186 6.97674H5.81395C4.91489 6.97674 4.18605 7.70558 4.18605 8.60465V11.3953C4.18605 12.2944 4.91489 13.0233 5.81395 13.0233H14.186C15.0851 13.0233 15.814 12.2944 15.814 11.3953V8.60465C15.814 7.70558 15.0851 6.97674 14.186 6.97674Z" fill="var(--fill-0, white)"/>
<path id="Vector_2" d="M14.186 0H5.81395C4.91489 0 4.18605 0.728839 4.18605 1.62791V4.4186C4.18605 5.31767 4.91489 6.04651 5.81395 6.04651H14.186C15.0851 6.04651 15.814 5.31767 15.814 4.4186V1.62791C15.814 0.728839 15.0851 0 14.186 0Z" fill="var(--fill-0, white)"/>
<path id="Vector_3" d="M14.186 13.9535H5.81395C4.91489 13.9535 4.18605 14.6823 4.18605 15.5814V18.3721C4.18605 19.2712 4.91489 20 5.81395 20H14.186C15.0851 20 15.814 19.2712 15.814 18.3721V15.5814C15.814 14.6823 15.0851 13.9535 14.186 13.9535Z" fill="var(--fill-0, white)"/>
<path id="Vector_4" d="M0.698074 5.11622C0.52133 5.11622 0.344586 5.05111 0.205051 4.91157C-0.0647166 4.64181 -0.0647166 4.19529 0.205051 3.92553L1.10738 3.0232L0.205051 2.12088C-0.0647166 1.85111 -0.0647166 1.4046 0.205051 1.13483C0.474818 0.865062 0.92133 0.865062 1.1911 1.13483L2.58645 2.53018C2.85621 2.79995 2.85621 3.24646 2.58645 3.51622L1.1911 4.91157C1.05156 5.05111 0.874818 5.11622 0.698074 5.11622Z" fill="var(--fill-0, white)"/>
<path id="Vector_5" d="M17.9074 19.0697C17.7306 19.0697 17.5539 19.0046 17.4144 18.8651C17.1446 18.5953 17.1446 18.1488 17.4144 17.879L18.3167 16.9767L17.4144 16.0744C17.1446 15.8046 17.1446 15.3581 17.4144 15.0883C17.6841 14.8186 18.1306 14.8186 18.4004 15.0883L19.7958 16.4837C20.0655 16.7534 20.0655 17.1999 19.7958 17.4697L18.4004 18.8651C18.2609 19.0046 18.0841 19.0697 17.9074 19.0697Z" fill="var(--fill-0, white)"/>
<path id="Vector_6" d="M17.4419 10.6977H16.9767C16.5953 10.6977 16.2791 10.3814 16.2791 10C16.2791 9.6186 16.5953 9.30233 16.9767 9.30233H17.4419C18.0837 9.30233 18.6047 8.7814 18.6047 8.13953V4.88372C18.6047 4.24186 18.0837 3.72093 17.4419 3.72093H16.9767C16.5953 3.72093 16.2791 3.40465 16.2791 3.02326C16.2791 2.64186 16.5953 2.32558 16.9767 2.32558H17.4419C18.8558 2.32558 20 3.46977 20 4.88372V8.13953C20 9.55349 18.8558 10.6977 17.4419 10.6977Z" fill="var(--fill-0, white)"/>
<path id="Vector_7" d="M3.02326 17.6744H2.55814C1.14419 17.6744 0 16.5302 0 15.1163V11.8605C0 10.4465 1.14419 9.30233 2.55814 9.30233H3.02326C3.40465 9.30233 3.72093 9.6186 3.72093 10C3.72093 10.3814 3.40465 10.6977 3.02326 10.6977H2.55814C1.91628 10.6977 1.39535 11.2186 1.39535 11.8605V15.1163C1.39535 15.7581 1.91628 16.2791 2.55814 16.2791H3.02326C3.40465 16.2791 3.72093 16.5953 3.72093 16.9767C3.72093 17.3581 3.40465 17.6744 3.02326 17.6744Z" fill="var(--fill-0, white)"/>
</g>
</svg>
