<svg preserveAspectRatio="none" width="100%" height="100%" overflow="visible" style="display: block;" viewBox="0 0 18 18" fill="none" xmlns="http://www.w3.org/2000/svg">
<g id="Group 42">
<path id="Vector" d="M12.9 6H5.1C4.44 6 3.9 6.54 3.9 7.2V16.8C3.9 17.46 4.44 18 5.1 18H9.9V15.3C9.9 14.472 10.572 13.8 11.4 13.8H14.1V7.2C14.1 6.54 13.56 6 12.9 6ZM7.5 13.8H5.7C5.37 13.8 5.1 13.53 5.1 13.2C5.1 12.87 5.37 12.6 5.7 12.6H7.5C7.83 12.6 8.1 12.87 8.1 13.2C8.1 13.53 7.83 13.8 7.5 13.8ZM12.3 11.4H5.7C5.37 11.4 5.1 11.13 5.1 10.8C5.1 10.47 5.37 10.2 5.7 10.2H12.3C12.63 10.2 12.9 10.47 12.9 10.8C12.9 11.13 12.63 11.4 12.3 11.4ZM12.3 9H5.7C5.37 9 5.1 8.73 5.1 8.4C5.1 8.07 5.37 7.8 5.7 7.8H12.3C12.63 7.8 12.9 8.07 12.9 8.4C12.9 8.73 12.63 9 12.3 9Z" fill="var(--fill-0, black)"/>
<path id="Vector_2" d="M11.1 15.3V17.646L13.746 15H11.4C11.232 15 11.1 15.132 11.1 15.3Z" fill="var(--fill-0, black)"/>
<path id="Vector_3" d="M16.5 6.084C16.5 6.084 16.5 6.024 16.5 6C16.5 4.794 15.6 3.804 14.442 3.636H10.854C10.524 3.636 10.254 3.366 10.254 3.036C10.254 2.706 10.524 2.436 10.854 2.436H13.692C12.756 0.978 10.986 0 9 0C6.528 0 4.38 1.518 3.774 3.6C2.508 3.666 1.5 4.716 1.5 6V6.084C0.63 6.342 0 7.146 0 8.1C0 9.258 0.942 10.2 2.1 10.2H2.7V7.2C2.7 5.874 3.774 4.8 5.1 4.8H12.9C14.226 4.8 15.3 5.874 15.3 7.2V10.2H15.9C17.058 10.2 18 9.258 18 8.1C18 7.152 17.364 6.348 16.5 6.084ZM8.85 3.63H8.55C8.22 3.63 7.95 3.36 7.95 3.03C7.95 2.7 8.22 2.43 8.55 2.43H8.85C9.18 2.43 9.45 2.7 9.45 3.03C9.45 3.36 9.18 3.63 8.85 3.63Z" fill="var(--fill-0, black)"/>
</g>
</svg>
