<svg preserveAspectRatio="none" width="100%" height="100%" overflow="visible" style="display: block;" viewBox="0 0 19.9998 20.2153" fill="none" xmlns="http://www.w3.org/2000/svg">
<g id="Group 43">
<path id="Vector" d="M15.9213 10.9951C16.1276 10.9955 16.3337 11.0085 16.5385 11.0341C16.7074 10.4918 16.8249 9.93489 16.8896 9.37062C17.5174 4.36949 13.2647 -0.138614 8.47636 0.0032615C3.12763 -0.127974 -1.20667 5.2704 0.304303 10.6475C0.684056 12.0848 1.43652 13.3965 2.48565 14.4498L8.09684 20.061C8.1984 20.1599 8.33457 20.2153 8.47636 20.2153C8.61814 20.2153 8.75431 20.1599 8.85587 20.061L11.0691 17.8477C9.86273 14.5999 12.4435 10.9291 15.9213 10.9951ZM8.47636 12.1904C7.4897 12.188 6.54419 11.7947 5.84685 11.0967C5.14951 10.3987 4.75714 9.45282 4.75566 8.46616C4.85852 5.99752 6.66744 4.7632 8.47636 4.75965C13.2257 4.79158 13.5839 11.9244 8.47636 12.1904Z" fill="var(--fill-0, white)"/>
<path id="Vector_2" d="M8.47432 5.80532C7.76906 5.80618 7.09294 6.08672 6.59424 6.58541C6.09555 7.08411 5.81501 7.76023 5.81415 8.46549C5.93921 11.9866 11.0123 11.9854 11.1345 8.46545C11.1342 7.76001 10.8539 7.08355 10.3551 6.58473C9.85623 6.08592 9.17976 5.80557 8.47432 5.80532Z" fill="var(--fill-0, white)"/>
<path id="Vector_3" d="M15.9209 12.0593C14.8395 12.0606 13.8028 12.4908 13.0382 13.2555C12.2735 14.0201 11.8433 15.0568 11.842 16.1382C12.0666 21.5493 19.776 21.5478 19.9998 16.1382C19.9985 15.0568 19.5683 14.0201 18.8036 13.2554C18.039 12.4908 17.0023 12.0606 15.9209 12.0593ZM17.5383 15.6877L15.8854 17.3406C15.8361 17.3901 15.7775 17.4293 15.713 17.4561C15.6485 17.4828 15.5793 17.4966 15.5095 17.4966C15.4396 17.4966 15.3704 17.4828 15.3059 17.4561C15.2414 17.4293 15.1828 17.3901 15.1335 17.3406L14.3035 16.5142C14.2062 16.414 14.1523 16.2795 14.1533 16.1398C14.1543 16.0002 14.2103 15.8665 14.309 15.7677C14.4078 15.669 14.5414 15.613 14.6811 15.612C14.8208 15.611 14.9552 15.6649 15.0555 15.7622L15.5095 16.2126L16.7863 14.9358C16.8866 14.8387 17.021 14.7848 17.1606 14.786C17.3001 14.7871 17.4337 14.843 17.5324 14.9417C17.6311 15.0404 17.687 15.1739 17.6881 15.3135C17.6892 15.4531 17.6354 15.5875 17.5383 15.6877Z" fill="var(--fill-0, white)"/>
</g>
</svg>
