<svg width="40" height="40" overflow="visible" style="display: block;" viewBox="0 0 40 40" fill="none" xmlns="http://www.w3.org/2000/svg">
<g id="Frame">
<rect width="40" height="40" rx="20" fill="var(--fill-0, #D66519)"/>
<path id="Vector" fill-rule="evenodd" clip-rule="evenodd" d="M28.2355 21.5686H25.2944C24.6453 21.5686 24.1179 22.0953 24.1179 22.7451V28.2353C24.1179 28.8851 24.6453 29.4118 25.2944 29.4118H28.2355C28.8846 29.4118 29.412 28.8851 29.412 28.2353C29.412 26.8772 29.412 24.1031 29.412 22.7451C29.412 22.0953 28.8846 21.5686 28.2355 21.5686ZM11.1767 27.0588H10.9806C10.763 27.0588 10.5885 27.2343 10.5885 27.451V28.2353C10.5885 28.5472 10.712 28.8465 10.9336 29.0672C11.1532 29.2878 11.4532 29.4118 11.7649 29.4118H18.4316C18.7434 29.4118 19.0434 29.2878 19.263 29.0672C19.4846 28.8465 19.6081 28.5472 19.6081 28.2353C19.6081 27.8431 19.6081 27.451 19.6081 27.451C19.6081 27.2343 19.4336 27.0588 19.2159 27.0588H19.0198V22.549C19.0198 22.3323 18.8453 22.1568 18.6277 22.1568H11.5689C11.3512 22.1568 11.1767 22.3323 11.1767 22.549V27.0588ZM11.3728 27.8431H13.563L13.8414 28.1204C13.914 28.1939 14.014 28.2353 14.1179 28.2353H16.0787C16.1826 28.2353 16.2826 28.1939 16.3551 28.1204L16.6336 27.8431H18.8238V28.2353C18.8238 28.3392 18.7826 28.439 18.7081 28.5125C18.6355 28.5861 18.5355 28.6274 18.4316 28.6274H11.7649C11.661 28.6274 11.561 28.5861 11.4885 28.5125C11.414 28.439 11.3728 28.3392 11.3728 28.2353V27.8431ZM21.1767 20.1961V24.7059H19.8042C19.5885 24.7059 19.412 24.8816 19.412 25.098C19.412 25.3145 19.5885 25.4902 19.8042 25.4902H23.3336C23.5493 25.4902 23.7257 25.3145 23.7257 25.098C23.7257 24.8816 23.5493 24.7059 23.3336 24.7059H21.961V20.1961H22.0591C24.71 20.1961 26.863 18.0435 26.863 15.3921C26.863 12.7408 24.71 10.5882 22.0591 10.5882C20.0689 10.5882 18.359 11.8021 17.6296 13.5294H16.4708C14.6316 13.5294 13.1375 15.0229 13.1375 16.8627C13.1375 18.7025 14.6316 20.1961 16.4708 20.1961H21.1767ZM27.8826 22.6425C27.8414 22.8178 27.6826 22.9412 27.5022 22.9412H26.0787C25.91 22.9412 25.761 22.8331 25.7061 22.6729L25.6003 22.3529H27.9552L27.8826 22.6425Z" fill="var(--fill-0, white)"/>
</g>
</svg>
