<svg width="160" height="160" viewBox="0 0 160 160" fill="none" xmlns="http://www.w3.org/2000/svg">
<g id="AI">
<g id="Frame 1707480266">
<g id="Group 90">
<g id="Vector">
<path d="M138.667 26.6667V32H0V26.6667C0 17.8453 7.17867 10.6667 16 10.6667H21.3333V5.33333C21.3333 2.384 23.7227 0 26.6667 0C29.6107 0 32 2.384 32 5.33333V10.6667H64V5.33333C64 2.384 66.3893 0 69.3333 0C72.2773 0 74.6667 2.384 74.6667 5.33333V10.6667H106.667V5.33333C106.667 2.384 109.056 0 112 0C114.944 0 117.333 2.384 117.333 5.33333V10.6667H122.667C131.488 10.6667 138.667 17.8453 138.667 26.6667ZM160 122.667C160 143.28 143.285 160 122.667 160C102.048 160 85.3333 143.28 85.3333 122.667C85.3333 102.053 102.048 85.3333 122.667 85.3333C143.285 85.3333 160 102.053 160 122.667ZM144 122.667C144 119.717 141.611 117.333 138.667 117.333H128V106.667C128 103.717 125.611 101.333 122.667 101.333C119.723 101.333 117.333 103.717 117.333 106.667V122.667C117.333 125.616 119.723 128 122.667 128H138.667C141.611 128 144 125.616 144 122.667ZM138.667 42.6667V77.44C133.653 75.6267 128.267 74.6667 122.667 74.6667C96.2133 74.6667 74.6667 96.2133 74.6667 122.667C74.6667 128.267 75.6267 133.653 77.44 138.667H16C7.2 138.667 0 131.467 0 122.667V42.6667H138.667ZM48 112C48 109.051 45.6107 106.667 42.6667 106.667H32C29.056 106.667 26.6667 109.051 26.6667 112C26.6667 114.949 29.056 117.333 32 117.333H42.6667C45.6107 117.333 48 114.949 48 112ZM48 90.6667C48 87.7173 45.6107 85.3333 42.6667 85.3333H32C29.056 85.3333 26.6667 87.7173 26.6667 90.6667C26.6667 93.616 29.056 96 32 96H42.6667C45.6107 96 48 93.616 48 90.6667ZM48 69.3333C48 66.384 45.6107 64 42.6667 64H32C29.056 64 26.6667 66.384 26.6667 69.3333C26.6667 72.2827 29.056 74.6667 32 74.6667H42.6667C45.6107 74.6667 48 72.2827 48 69.3333ZM80 69.3333C80 66.384 77.6107 64 74.6667 64H64C61.056 64 58.6667 66.384 58.6667 69.3333C58.6667 72.2827 61.056 74.6667 64 74.6667H74.6667C77.6107 74.6667 80 72.2827 80 69.3333Z" fill="url(#paint0_linear_355_3396)" fill-opacity="0.14"/>
<path d="M122.667 87.3535C142.17 87.3537 157.98 103.169 157.98 122.667C157.98 142.165 142.17 157.98 122.667 157.98C103.164 157.98 87.3537 142.165 87.3535 122.667C87.3535 103.169 103.164 87.3535 122.667 87.3535ZM136.646 44.6865V74.6533C132.198 73.3371 127.506 72.6465 122.667 72.6465C95.0982 72.6465 72.6465 95.0982 72.6465 122.667C72.6465 127.506 73.3381 132.198 74.6543 136.646H16C8.31557 136.646 2.01971 130.351 2.01953 122.667V44.6865H136.646ZM122.667 99.3135C118.609 99.3135 115.313 102.601 115.313 106.667V122.667C115.314 126.733 118.609 130.02 122.667 130.02H138.667C142.725 130.019 146.019 126.733 146.02 122.667C146.02 118.601 142.725 115.314 138.667 115.313H130.02V106.667C130.02 102.601 126.725 99.3136 122.667 99.3135ZM32 104.646C27.9419 104.646 24.6465 107.934 24.6465 112C24.6465 116.066 27.9419 119.354 32 119.354H42.667C46.725 119.353 50.0195 116.066 50.0195 112C50.0195 107.934 46.725 104.647 42.667 104.646H32ZM32 83.3135C27.9419 83.3135 24.6465 86.6009 24.6465 90.667C24.6467 94.733 27.942 98.0195 32 98.0195H42.667C46.7249 98.0194 50.0194 94.7328 50.0195 90.667C50.0195 86.601 46.725 83.3137 42.667 83.3135H32ZM32 61.9805C27.942 61.9805 24.6467 65.267 24.6465 69.333C24.6465 73.3991 27.9419 76.6865 32 76.6865H42.667C46.725 76.6863 50.0195 73.399 50.0195 69.333C50.0194 65.2672 46.7249 61.9806 42.667 61.9805H32ZM64 61.9805C59.942 61.9805 56.6467 65.267 56.6465 69.333C56.6465 73.3991 59.9419 76.6865 64 76.6865H74.667C78.725 76.6863 82.0195 73.399 82.0195 69.333C82.0194 65.2672 78.7249 61.9806 74.667 61.9805H64ZM112 2.01953C113.83 2.01953 115.313 3.5006 115.313 5.33301V12.6865H122.667C130.373 12.6867 136.646 18.9612 136.646 26.667V29.9805H2.01953V26.667C2.01953 18.9611 8.29413 12.6865 16 12.6865H23.3535V5.33301C23.3537 3.5006 24.8372 2.01953 26.667 2.01953C28.4966 2.01971 29.9803 3.50071 29.9805 5.33301V12.6865H66.0195V5.33301C66.0197 3.50071 67.5034 2.01971 69.333 2.01953C71.1627 2.01953 72.6463 3.5006 72.6465 5.33301V12.6865H108.687V5.33301C108.687 3.5006 110.17 2.01953 112 2.01953Z" stroke="black" stroke-opacity="0.01" stroke-width="4.03945"/>
</g>
</g>
</g>
</g>
<defs>
<linearGradient id="paint0_linear_355_3396" x1="74.9507" y1="14.8639" x2="27.9921" y2="147.661" gradientUnits="userSpaceOnUse">
<stop stop-color="#7A7A7A"/>
<stop offset="1"/>
</linearGradient>
</defs>
</svg>
