<svg width="160" height="160" viewBox="0 0 160 160" fill="none" xmlns="http://www.w3.org/2000/svg">
<g id="AI">
<g id="Frame 1707480266">
<g id="Group 87">
<g id="Group 91">
<g id="Vector">
<path d="M57.1428 62.8571C57.1428 50.2511 46.8888 40 34.2856 40C21.6824 40 11.4285 50.2511 11.4285 62.8571C11.4285 75.4632 21.6824 85.7143 34.2856 85.7143C46.8888 85.7143 57.1428 75.4632 57.1428 62.8571Z" fill="url(#paint0_linear_355_3396)" fill-opacity="0.14"/>
<path d="M34.2859 42.0195C45.7737 42.0197 55.1228 51.3671 55.1228 62.8574C55.1227 74.3476 45.7736 83.6942 34.2859 83.6943C22.798 83.6943 13.4481 74.3477 13.448 62.8574C13.448 51.367 22.798 42.0195 34.2859 42.0195Z" stroke="black" stroke-opacity="0.01" stroke-width="4.03945"/>
</g>
<g id="Vector_2">
<path d="M136.105 45.7144C130.173 45.7144 124.375 48.0581 120 52.182C115.625 48.0581 109.827 45.7144 103.895 45.7144C90.7199 45.7144 80 56.8248 80 70.48C80 77.0425 82.4526 83.2255 86.9029 87.8907L115.865 118.231C116.948 119.358 118.438 120 120 120C121.562 120 123.052 119.358 124.135 118.231L153.097 87.8907C157.55 83.2255 160 77.0425 160 70.48C160 56.8248 149.28 45.7144 136.105 45.7144Z" fill="url(#paint1_linear_355_3396)" fill-opacity="0.14"/>
<path d="M136.104 47.7339C148.097 47.7339 157.98 57.8716 157.98 70.48C157.98 76.5338 155.723 82.2148 151.636 86.4966L122.674 116.836C121.968 117.569 121.005 117.98 120 117.98C118.995 117.98 118.031 117.569 117.325 116.836H117.326L88.3643 86.4966C84.2791 82.2142 82.0195 76.5332 82.0195 70.48C82.0195 57.8716 91.9033 47.7339 103.896 47.7339C109.299 47.734 114.604 49.8723 118.614 53.6519L120 54.9575L121.386 53.6519C125.396 49.8723 130.701 47.734 136.104 47.7339Z" stroke="black" stroke-opacity="0.01" stroke-width="4.03945"/>
</g>
<g id="Vector_3">
<path d="M135.469 24.5312C133.237 22.2991 129.621 22.2991 127.388 24.5312L125.714 26.2054V22.8571C125.714 10.2511 115.463 0 102.857 0H51.4287C38.8254 0 28.5715 10.2511 28.5715 22.8571V34.2857H40.0001V22.8571C40.0001 16.5569 45.1257 11.4286 51.4287 11.4286H102.857C109.157 11.4286 114.286 16.5569 114.286 22.8571V26.2054L112.612 24.5312C110.38 22.2991 106.763 22.2991 104.531 24.5312C102.299 26.7634 102.299 30.3795 104.531 32.6116L115.96 44.0402C117.076 45.1562 118.538 45.7143 120 45.7143C121.462 45.7143 122.924 45.1562 124.04 44.0402L135.469 32.6116C137.701 30.3795 137.701 26.7634 135.469 24.5312Z" fill="url(#paint2_linear_355_3396)" fill-opacity="0.14"/>
<path d="M51.429 2.01953H102.858C114.348 2.01976 123.695 11.367 123.695 22.8574V31.0811L127.143 27.6338L128.817 25.959C130.26 24.5159 132.597 24.5161 134.04 25.959C135.484 27.4024 135.484 29.7402 134.04 31.1836L122.613 42.6123C121.89 43.3346 120.948 43.6943 120 43.6943C119.052 43.6943 118.11 43.3346 117.388 42.6123L105.959 31.1836C104.516 29.7402 104.516 27.4024 105.959 25.959C107.403 24.5157 109.74 24.5157 111.184 25.959L112.858 27.6338L116.306 31.0811V22.8574C116.306 15.4419 110.273 9.40941 102.858 9.40918H51.429C44.0102 9.40918 37.9807 15.4421 37.9807 22.8574V32.2656H30.5911V22.8574C30.5911 11.367 39.941 2.01953 51.429 2.01953Z" stroke="black" stroke-opacity="0.01" stroke-width="4.03945"/>
</g>
<g id="Vector_4">
<path d="M26.2054 111.92C28.365 109.76 31.2333 108.571 34.2857 108.571C37.3382 108.571 40.2065 109.76 42.3661 111.92L50.4464 120H62.8571C66.0128 120 68.5714 117.444 68.5714 114.286V108.571C68.5714 95.9655 58.3175 85.7144 45.7143 85.7144H34.2857H22.8571C10.2539 85.7144 0 95.9655 0 108.571V114.286C0 117.444 2.55859 120 5.71429 120H18.125L26.2054 111.92Z" fill="url(#paint3_linear_355_3396)" fill-opacity="0.14"/>
<path d="M22.8574 87.7339H45.7139C57.2018 87.7339 66.5518 97.0814 66.5518 108.572V114.286C66.5518 116.328 64.8982 117.98 62.8574 117.98H51.2832L43.7939 110.492C41.256 107.954 37.8745 106.552 34.2861 106.552C30.6976 106.552 27.3154 107.954 24.7773 110.492L17.2891 117.98H5.71387C3.67319 117.98 2.01953 116.328 2.01953 114.286V108.572C2.01953 97.0814 11.3695 87.7339 22.8574 87.7339Z" stroke="black" stroke-opacity="0.01" stroke-width="4.03945"/>
</g>
<g id="Vector_5">
<path d="M114.286 137.143C114.286 143.443 109.157 148.571 102.857 148.571H51.4285C45.1255 148.571 40 143.443 40 137.143V133.795L41.6741 135.469C42.7901 136.585 44.2522 137.143 45.7142 137.143C47.1763 137.143 48.6384 136.585 49.7544 135.469C51.9866 133.237 51.9866 129.62 49.7544 127.388L38.3259 115.96C36.0937 113.728 32.4776 113.728 30.2455 115.96L18.8169 127.388C16.5848 129.62 16.5848 133.237 18.8169 135.469C21.0491 137.701 24.6651 137.701 26.8973 135.469L28.5714 133.795V137.143C28.5714 149.749 38.8253 160 51.4285 160H102.857C115.463 160 125.714 149.749 125.714 137.143V125.714H114.286V137.143Z" fill="url(#paint4_linear_355_3396)" fill-opacity="0.14"/>
<path d="M31.6741 117.388C33.1175 115.945 35.4543 115.945 36.8977 117.388L48.3264 128.817C49.7695 130.26 49.7696 132.597 48.3264 134.041C47.604 134.763 46.662 135.124 45.7141 135.124C44.7663 135.124 43.8241 134.763 43.1018 134.041L41.428 132.367L37.9807 128.918V137.143C37.9809 144.558 44.0102 150.591 51.429 150.591H102.857C110.272 150.591 116.305 144.559 116.305 137.143V127.734H123.695V137.143C123.694 148.634 114.347 157.98 102.857 157.98H51.429C39.9411 157.98 30.5912 148.633 30.5911 137.143V128.918L25.469 134.041C24.0256 135.484 21.6887 135.484 20.2454 134.041C18.802 132.597 18.802 130.26 20.2454 128.817L31.6741 117.388Z" stroke="black" stroke-opacity="0.01" stroke-width="4.03945"/>
</g>
</g>
</g>
</g>
</g>
<defs>
<linearGradient id="paint0_linear_355_3396" x1="32.843" y1="44.2468" x2="19.4262" y2="82.1888" gradientUnits="userSpaceOnUse">
<stop stop-color="#7A7A7A"/>
<stop offset="1"/>
</linearGradient>
<linearGradient id="paint1_linear_355_3396" x1="117.475" y1="52.6155" x2="96.9157" y2="115.23" gradientUnits="userSpaceOnUse">
<stop stop-color="#7A7A7A"/>
<stop offset="1"/>
</linearGradient>
<linearGradient id="paint2_linear_355_3396" x1="79.4309" y1="4.24683" x2="73.2132" y2="46.0074" gradientUnits="userSpaceOnUse">
<stop stop-color="#7A7A7A"/>
<stop offset="1"/>
</linearGradient>
<linearGradient id="paint3_linear_355_3396" x1="32.1217" y1="88.8995" x2="26.6329" y2="119.944" gradientUnits="userSpaceOnUse">
<stop stop-color="#7A7A7A"/>
<stop offset="1"/>
</linearGradient>
<linearGradient id="paint4_linear_355_3396" x1="68.0022" y1="118.532" x2="61.7845" y2="160.293" gradientUnits="userSpaceOnUse">
<stop stop-color="#7A7A7A"/>
<stop offset="1"/>
</linearGradient>
</defs>
</svg>
