<svg width="96" height="96.2722" overflow="visible" style="display: block;" viewBox="0 0 96 96.2722" fill="none" xmlns="http://www.w3.org/2000/svg">
<g id="Group 63" filter="url(#filter0_i_0_4)">
<path id="Vector" d="M61.5879 25.7865C56.9412 25.7865 52.5308 27.9888 49.4847 31.8295C48.7887 32.7063 47.2103 32.7063 46.5143 31.8295C43.4701 27.9905 39.0578 25.7865 34.4112 25.7865C26.6334 25.7865 20.3068 32.304 20.3068 40.3138C20.3068 58.2227 43.6842 68.5809 47.9986 70.3379C52.313 68.5826 75.6904 58.2227 75.6904 40.3138C75.6904 32.304 69.3656 25.7865 61.5879 25.7865ZM57.2311 49.8553H49.8466V56.7321C49.8466 57.6828 49.0214 58.4513 48.0005 58.4513C46.9795 58.4513 46.1543 57.6828 46.1543 56.7321V49.8553H38.7698C37.7489 49.8553 36.9237 49.0868 36.9237 48.1361C36.9237 47.1854 37.7489 46.4169 38.7698 46.4169H46.1543V39.5401C46.1543 38.5894 46.9795 37.8209 48.0005 37.8209C49.0214 37.8209 49.8466 38.5894 49.8466 39.5401V46.4169H57.2311C58.252 46.4169 59.0772 47.1854 59.0772 48.1361C59.0772 49.0868 58.252 49.8553 57.2311 49.8553Z" fill="var(--fill-0, white)" fill-opacity="0.5"/>
<path id="Vector_2" d="M95.9235 60.6654C95.5782 57.9336 94.1143 55.4872 91.7974 53.7783C91.406 53.4878 91.1549 53.0631 91.1069 52.5989C91.0589 52.1348 91.2122 51.674 91.5352 51.3181C95.353 47.1181 94.9561 40.8895 90.6288 37.1399C90.1396 36.717 89.9347 36.0843 90.0897 35.4809C90.3316 34.5387 90.4534 33.5829 90.4534 32.6407C90.4719 26.5513 85.5815 21.4178 79.0813 20.6957C78.4204 20.6218 77.8536 20.2247 77.5952 19.6522C77.3386 19.0814 77.4327 18.4247 77.8407 17.9347C78.8358 16.7416 79.3841 15.2493 79.3841 13.7364C79.3841 13.1364 79.2991 12.5364 79.133 11.9519C78.629 10.1845 77.4106 8.70259 75.7066 7.78454C73.9952 6.86133 71.9977 6.61892 70.0981 7.09342C69.1363 7.33927 68.1652 6.83038 67.8624 5.96047C66.6329 2.41204 63.1142 0.0154728 59.1044 0C54.0202 0 49.8646 3.85101 49.8461 8.58397C49.8424 9.53125 49.0172 10.2963 48 10.2963C46.9828 10.2963 46.1576 9.53125 46.1539 8.58397C46.1354 3.85101 41.9798 0 36.8882 0C32.8858 0.0154728 29.3671 2.41032 28.1376 5.96047C27.8348 6.83038 26.8656 7.33755 25.9019 7.09342C24.0023 6.62408 22.0048 6.86305 20.2934 7.78454C18.5876 8.70259 17.371 10.1845 16.867 11.9536C16.7009 12.5364 16.6159 13.1364 16.6159 13.7364C16.6159 15.2493 17.1642 16.7416 18.1593 17.9347C18.5673 18.4247 18.6596 19.0814 18.4048 19.6522C18.1464 20.2247 17.5815 20.6218 16.9187 20.6957C10.4185 21.4178 5.52813 26.5513 5.54659 32.6356C5.54659 33.5846 5.66843 34.5387 5.91027 35.4809C6.06535 36.0843 5.86043 36.717 5.3712 37.1399C1.0439 40.8895 0.645134 47.1181 4.46476 51.3181C4.78968 51.674 4.94291 52.1365 4.89306 52.5989C4.84321 53.0614 4.59399 53.4878 4.20261 53.7783C1.88573 55.4872 0.419907 57.9336 0.076528 60.6654C-0.266851 63.3972 0.552827 66.0844 2.38418 68.2368C3.79462 69.9182 5.7072 71.1268 7.92439 71.7422C8.7533 71.9726 9.29975 72.7084 9.23698 73.513C8.78653 79.3067 13.064 84.5039 19.1913 85.6007C19.9113 85.7297 20.478 86.2437 20.6423 86.909C21.4066 90.0414 23.4355 92.7096 26.3561 94.4219C29.2766 96.1325 32.7381 96.6793 36.1054 95.9692C42.0204 94.7005 46.1539 89.8764 46.1539 84.2408C46.1539 83.2901 46.9791 82.5216 48 82.5216C49.0209 82.5216 49.8461 83.2901 49.8461 84.2408C49.8461 89.8764 53.9796 94.7005 59.9001 95.9692C63.2619 96.6793 66.7215 96.1325 69.6439 94.4219C72.5645 92.7096 74.5934 90.0414 75.3577 86.909C75.522 86.2437 76.0887 85.7297 76.8087 85.6007C82.9342 84.5022 87.2135 79.3067 86.763 73.513C86.7003 72.7084 87.2467 71.9726 88.0756 71.7422C90.2928 71.1268 92.2054 69.9165 93.6066 68.2471C93.6103 68.2437 93.6121 68.2402 93.6158 68.2368C95.4472 66.0844 96.2669 63.3972 95.9235 60.6654ZM48.6757 73.8053C48.4597 73.8844 48.2289 73.9239 48 73.9239C47.7711 73.9239 47.5403 73.8844 47.3243 73.8053C46.069 73.3445 16.6159 62.2935 16.6159 40.3153C16.6159 30.4075 24.5986 22.3496 34.4125 22.3496C39.5134 22.3496 44.3576 24.4247 48 28.1107C51.6442 24.4247 56.4885 22.3496 61.5875 22.3496C71.3996 22.3496 79.3841 30.4092 79.3841 40.3153C79.3841 62.2935 49.931 73.3463 48.6757 73.8053Z" fill="var(--fill-0, white)" fill-opacity="0.5"/>
</g>
<defs>
<filter id="filter0_i_0_4" x="0" y="0" width="96" height="96.2722" filterUnits="userSpaceOnUse" color-interpolation-filters="sRGB">
<feFlood flood-opacity="0" result="BackgroundImageFix"/>
<feBlend mode="normal" in="SourceGraphic" in2="BackgroundImageFix" result="shape"/>
<feColorMatrix in="SourceAlpha" type="matrix" values="0 0 0 0 0 0 0 0 0 0 0 0 0 0 0 0 0 0 127 0" result="hardAlpha"/>
<feOffset/>
<feGaussianBlur stdDeviation="1.95318"/>
<feComposite in2="hardAlpha" operator="arithmetic" k2="-1" k3="1"/>
<feColorMatrix type="matrix" values="0 0 0 0 1 0 0 0 0 1 0 0 0 0 1 0 0 0 0.8 0"/>
<feBlend mode="normal" in2="shape" result="effect1_innerShadow_0_4"/>
</filter>
</defs>
</svg>
