<svg preserveAspectRatio="none" width="100%" height="100%" overflow="visible" style="display: block;" viewBox="0 0 96 86.9418" fill="none" xmlns="http://www.w3.org/2000/svg">
<g id="Group">
<path id="Vector" fill-rule="evenodd" clip-rule="evenodd" d="M42.5867 86.9215H10C4.47557 86.9215 1.5236e-05 82.7542 1.5236e-05 77.6075L1.5236e-05 9.31015C1.5236e-05 4.1673 4.47557 3.67152e-05 10 3.67152e-05L50 3.67152e-05C55.5244 3.67152e-05 60 4.1673 60 9.31015V32.9312C55.4267 32.1093 50.7467 32.7046 46.64 34.529C46.6578 34.4022 46.6667 34.2754 46.6667 34.1487C46.6667 32.4318 45.1733 31.0415 43.3333 31.0415H30C28.16 31.0415 26.6667 32.4318 26.6667 34.1487C26.6667 35.8617 28.16 37.2521 30 37.2521H42.0889C41.4933 37.713 40.9244 38.2084 40.3822 38.7346C39.0178 39.9368 37.7245 41.2619 36.8311 42.4179C35.8178 43.7315 34.8978 45.118 34.0889 46.566H30C28.16 46.566 26.6667 47.9564 26.6667 49.6694C26.6667 51.3824 28.16 52.7728 30 52.7728H31.4223C30.5023 55.7341 30.0089 58.8566 30 62.0868C28.16 62.0868 26.6667 63.4771 26.6667 65.1901C26.6667 66.9031 28.16 68.2974 30 68.2974H30.7067C32.6 76.4591 37.9645 82.8771 42.5867 86.9215ZM17.5022 45.7902C15.2 45.7902 13.3333 47.5262 13.3333 49.6694C13.3333 51.8126 15.2 53.5487 17.5022 53.5487C19.8 53.5487 21.6667 51.8126 21.6667 49.6694C21.6667 47.5262 19.8 45.7902 17.5022 45.7902ZM33.3333 21.7275H43.3333C45.1733 21.7275 46.6667 20.3371 46.6667 18.6241C46.6667 16.9111 45.1733 15.5208 43.3333 15.5208L33.3333 15.5208C31.4933 15.5208 30 16.9111 30 18.6241C30 20.3371 31.4933 21.7275 33.3333 21.7275ZM17.5022 30.2657C15.2 30.2657 13.3333 32.0055 13.3333 34.1487C13.3333 36.288 15.2 38.0279 17.5022 38.0279C19.8 38.0279 21.6667 36.288 21.6667 34.1487C21.6667 32.0055 19.8 30.2657 17.5022 30.2657ZM17.5022 61.3109C15.2 61.3109 13.3333 63.0508 13.3333 65.1901C13.3333 67.3333 15.2 69.0732 17.5022 69.0732C19.8 69.0732 21.6667 67.3333 21.6667 65.1901C21.6667 63.0508 19.8 61.3109 17.5022 61.3109ZM12.6445 19.2694L15.9778 22.3728C17.28 23.5865 19.3867 23.5865 20.6889 22.3728L29.0222 14.6105C30.3244 13.4006 30.3244 11.4341 29.0222 10.2204C27.7244 9.01057 25.6089 9.01057 24.3111 10.2204L18.3333 15.7858L17.3556 14.8793C16.0578 13.6656 13.9422 13.6656 12.6445 14.8793C11.3422 16.0892 11.3422 18.0557 12.6445 19.2694ZM69.6844 39.86L72.3022 39.2954C78.6134 37.9281 85.2044 40.0213 89.3066 44.6918C89.3377 44.7263 89.3689 44.7647 89.4 44.7993C89.7645 45.2563 90.1289 45.6635 90.4222 46.0475C93.9333 50.5835 96 56.1527 96 62.1675C96 72.795 88.2578 80.611 83.3333 84.2022C79.2444 87.1904 75.5778 87.2134 72.2622 86.4913C70.0622 86.015 68.1244 84.9473 66.3466 84.9511C65.6755 84.955 64.9911 85.1854 64.2577 85.4159C63.0711 85.7923 61.8267 86.2301 60.5111 86.5297C57.2311 87.271 53.6 87.2748 49.5156 84.2905C44.5956 80.6994 36.6667 72.8641 36.6667 62.1675C36.6667 56.1527 38.7334 50.5835 42.2445 46.0475C42.9467 45.1334 43.9866 44.0964 45.1022 43.1209C48.72 39.5643 54.0845 38.0433 59.1867 39.1148C60.48 39.3261 61.8089 39.6065 63.0133 39.8677C63.2355 35.3739 66.0044 29.4898 69.8267 26.8319C71.2978 25.8064 73.3911 26.0868 74.4889 27.4618C75.5911 28.833 75.2889 30.7803 73.8133 31.8058C71.4667 33.4381 69.8711 37.0562 69.6844 39.86Z" fill="var(--fill-0, white)" fill-opacity="0.5"/>
</g>
</svg>
