<svg width="96" height="95.6358" overflow="visible" style="display: block;" viewBox="0 0 96 95.6358" fill="none" xmlns="http://www.w3.org/2000/svg">
<g id="Group 47" filter="url(#filter0_i_0_20)">
<path id="Vector" d="M2.81249 61.8269H14.25C15.8045 61.8269 17.0625 60.5738 17.0625 59.0251C17.0625 57.4765 15.8045 56.2233 14.25 56.2233H2.81249C1.25793 56.2233 0 57.4765 0 59.0251C0 60.5738 1.25793 61.8269 2.81249 61.8269Z" fill="var(--fill-0, white)" fill-opacity="0.5"/>
<path id="Vector_2" d="M12.6896 67.9014L4.06463 73.5051C2.77107 74.3643 2.42213 76.1016 3.28463 77.3904C4.13231 78.6593 5.8695 79.0359 7.1848 78.1675L15.8098 72.5638C17.1033 71.7046 17.4523 69.9673 16.5898 68.6784C15.7301 67.3896 13.9832 67.0394 12.6896 67.9014Z" fill="var(--fill-0, white)" fill-opacity="0.5"/>
<path id="Vector_3" d="M3.28438 40.6601C2.42188 41.9487 2.77081 43.6862 4.06437 44.5455L12.6894 50.1491C14.0052 51.0182 15.7418 50.6406 16.5895 49.3721C17.452 48.0834 17.1031 46.3459 15.8095 45.4867L7.18455 39.883C5.88537 39.0238 4.14125 39.3712 3.28438 40.6601Z" fill="var(--fill-0, white)" fill-opacity="0.5"/>
<path id="Vector_4" d="M93.1875 56.2233H81.9376C80.383 56.2233 79.1251 57.4765 79.1251 59.0251C79.1251 60.5738 80.383 61.8269 81.9376 61.8269H93.1875C94.7421 61.8269 96 60.5738 96 59.0251C96 57.4765 94.7421 56.2233 93.1875 56.2233Z" fill="var(--fill-0, white)" fill-opacity="0.5"/>
<path id="Vector_5" d="M92.7143 77.3902C93.5768 76.1015 93.2279 74.364 91.9343 73.5048L83.4969 67.9011C82.1977 67.0393 80.4537 67.3895 79.5967 68.6782C78.7342 69.9668 79.0831 71.7043 80.3767 72.5636L88.8142 78.1672C90.1302 79.0364 91.8668 78.6589 92.7143 77.3902Z" fill="var(--fill-0, white)" fill-opacity="0.5"/>
<path id="Vector_6" d="M83.4971 50.1491L91.9346 44.5454C93.2281 43.6862 93.5771 41.9489 92.7146 40.66C91.8549 39.3714 90.1025 39.0237 88.8144 39.883L80.3769 45.4866C79.0833 46.3459 78.7344 48.0832 79.5969 49.372C80.4446 50.6411 82.182 51.0176 83.4971 50.1491Z" fill="var(--fill-0, white)" fill-opacity="0.5"/>
<path id="Vector_7" d="M65.0621 50.6196H31.1247C26.4721 50.6196 22.6872 54.3901 22.6872 59.0251C22.6872 63.66 26.4721 67.4306 31.1247 67.4306H65.0621C69.7147 67.4306 73.4996 63.66 73.4996 59.0251C73.4996 54.3901 69.7147 50.6196 65.0621 50.6196ZM47.9997 61.8269C46.4464 61.8269 45.1872 60.5724 45.1872 59.0251C45.1872 57.4773 46.4464 56.2232 47.9997 56.2232C49.5529 56.2232 50.8121 57.4773 50.8121 59.0251C50.8121 60.5724 49.5529 61.8269 47.9997 61.8269Z" fill="var(--fill-0, white)" fill-opacity="0.5"/>
<path id="Vector_8" d="M36.7496 95.6357H59.437C60.9916 95.6357 62.2495 94.3825 62.2495 92.8339V90.032H65.062C69.7146 90.032 73.4995 86.0747 73.4995 81.4398C73.4995 76.8048 69.7146 73.0343 65.062 73.0343H31.1246C26.472 73.0343 22.6871 76.8048 22.6871 81.4398C22.6871 86.0747 26.472 90.032 31.1246 90.032H33.9371V92.8339C33.9371 94.3825 35.195 95.6357 36.7496 95.6357ZM47.9995 78.6379C49.5528 78.6379 50.812 79.892 50.812 81.4398C50.812 82.9871 49.5528 84.2416 47.9995 84.2416C46.4463 84.2416 45.187 82.9871 45.187 81.4398C45.187 79.892 46.4463 78.6379 47.9995 78.6379Z" fill="var(--fill-0, white)" fill-opacity="0.5"/>
<path id="Vector_9" d="M65.0623 28.205H31.1249C26.4723 28.205 22.6874 31.9755 22.6874 36.6105C22.6874 41.2455 26.4723 45.016 31.1249 45.016H65.0623C69.7149 45.016 73.4998 41.2455 73.4998 36.6105C73.4998 31.9755 69.7149 28.205 65.0623 28.205ZM47.9999 39.4123C46.4466 39.4123 45.1874 38.1579 45.1874 36.6105C45.1874 35.0628 46.4466 33.8087 47.9999 33.8087C49.5531 33.8087 50.8124 35.0628 50.8124 36.6105C50.8124 38.1579 49.5531 39.4123 47.9999 39.4123Z" fill="var(--fill-0, white)" fill-opacity="0.5"/>
<path id="Vector_10" d="M59.4071 0L36.5928 0C35.0295 0 33.7645 1.15461 33.7645 2.58148V5.33506H30.9363C26.2577 5.33506 22.4516 8.80904 22.4516 13.0795C22.4516 17.3499 26.2577 20.8239 30.9363 20.8239H65.0636C69.7422 20.8239 73.5483 17.3499 73.5483 13.0795C73.5483 8.80904 69.7422 5.33506 65.0636 5.33506H62.2353V2.58148C62.2353 1.15461 60.9704 0 59.4071 0ZM47.9057 15.661C46.3437 15.661 45.0774 14.5052 45.0774 13.0795C45.0774 11.6535 46.3437 10.498 47.9057 10.498C49.4676 10.498 50.7339 11.6535 50.7339 13.0795C50.7339 14.5052 49.4676 15.661 47.9057 15.661Z" fill="var(--fill-0, white)" fill-opacity="0.5"/>
</g>
<defs>
<filter id="filter0_i_0_20" x="0" y="0" width="96" height="95.6357" filterUnits="userSpaceOnUse" color-interpolation-filters="sRGB">
<feFlood flood-opacity="0" result="BackgroundImageFix"/>
<feBlend mode="normal" in="SourceGraphic" in2="BackgroundImageFix" result="shape"/>
<feColorMatrix in="SourceAlpha" type="matrix" values="0 0 0 0 0 0 0 0 0 0 0 0 0 0 0 0 0 0 127 0" result="hardAlpha"/>
<feOffset/>
<feGaussianBlur stdDeviation="1.92814"/>
<feComposite in2="hardAlpha" operator="arithmetic" k2="-1" k3="1"/>
<feColorMatrix type="matrix" values="0 0 0 0 1 0 0 0 0 1 0 0 0 0 1 0 0 0 0.8 0"/>
<feBlend mode="normal" in2="shape" result="effect1_innerShadow_0_20"/>
</filter>
</defs>
</svg>
